<mxfile host="app.diagrams.net" modified="2022-06-30T09:47:42.283Z" agent="5.0 (Windows NT 10.0; Win64; x64) AppleWebKit/537.36 (KHTML, like Gecko) Chrome/103.0.5060.53 Safari/537.36 Edg/103.0.1264.37" etag="oOLNoudszDs64ngbRKGM" version="20.0.4" type="github">
  <diagram id="kxK_C3C2tMsKfBX2lbiR" name="Page-1">
    <mxGraphModel dx="599" dy="359" grid="1" gridSize="10" guides="1" tooltips="1" connect="1" arrows="1" fold="1" page="1" pageScale="1" pageWidth="827" pageHeight="1169" math="0" shadow="0">
      <root>
        <mxCell id="0" />
        <mxCell id="1" parent="0" />
        <mxCell id="XORYU4TF_m6CobQ9tlCl-7" style="edgeStyle=orthogonalEdgeStyle;rounded=0;orthogonalLoop=1;jettySize=auto;html=1;fontSize=7;entryX=0.5;entryY=0;entryDx=0;entryDy=0;" parent="1" source="XORYU4TF_m6CobQ9tlCl-2" target="XORYU4TF_m6CobQ9tlCl-3" edge="1">
          <mxGeometry relative="1" as="geometry">
            <mxPoint x="110" y="50" as="targetPoint" />
            <Array as="points">
              <mxPoint x="80" y="80" />
              <mxPoint x="305" y="80" />
            </Array>
          </mxGeometry>
        </mxCell>
        <mxCell id="WSknAyBgMAha3jZFlSOS-1" style="edgeStyle=orthogonalEdgeStyle;rounded=0;orthogonalLoop=1;jettySize=auto;html=1;exitX=0.25;exitY=0;exitDx=0;exitDy=0;entryX=0.699;entryY=0.012;entryDx=0;entryDy=0;entryPerimeter=0;" edge="1" parent="1" source="XORYU4TF_m6CobQ9tlCl-2" target="XORYU4TF_m6CobQ9tlCl-3">
          <mxGeometry relative="1" as="geometry">
            <Array as="points">
              <mxPoint x="60" y="60" />
              <mxPoint x="319" y="60" />
            </Array>
          </mxGeometry>
        </mxCell>
        <mxCell id="XORYU4TF_m6CobQ9tlCl-2" value="Pegawai" style="rounded=0;whiteSpace=wrap;html=1;" parent="1" vertex="1">
          <mxGeometry x="40" y="120" width="80" height="40" as="geometry" />
        </mxCell>
        <mxCell id="Hff7kwKCVYfB539MArai-3" style="edgeStyle=orthogonalEdgeStyle;rounded=0;orthogonalLoop=1;jettySize=auto;html=1;exitX=0;exitY=1;exitDx=0;exitDy=0;entryX=0.75;entryY=1;entryDx=0;entryDy=0;fontSize=7;" parent="1" source="XORYU4TF_m6CobQ9tlCl-3" target="XORYU4TF_m6CobQ9tlCl-2" edge="1">
          <mxGeometry relative="1" as="geometry">
            <Array as="points">
              <mxPoint x="280" y="180" />
              <mxPoint x="100" y="180" />
            </Array>
          </mxGeometry>
        </mxCell>
        <mxCell id="Hff7kwKCVYfB539MArai-4" style="edgeStyle=orthogonalEdgeStyle;rounded=0;orthogonalLoop=1;jettySize=auto;html=1;exitX=0.5;exitY=1;exitDx=0;exitDy=0;entryX=0.5;entryY=1;entryDx=0;entryDy=0;fontSize=7;" parent="1" source="XORYU4TF_m6CobQ9tlCl-3" target="XORYU4TF_m6CobQ9tlCl-2" edge="1">
          <mxGeometry relative="1" as="geometry">
            <Array as="points">
              <mxPoint x="305" y="200" />
              <mxPoint x="80" y="200" />
            </Array>
          </mxGeometry>
        </mxCell>
        <mxCell id="Hff7kwKCVYfB539MArai-10" style="edgeStyle=orthogonalEdgeStyle;rounded=0;orthogonalLoop=1;jettySize=auto;html=1;exitX=1;exitY=1;exitDx=0;exitDy=0;entryX=0.25;entryY=1;entryDx=0;entryDy=0;fontSize=7;" parent="1" source="XORYU4TF_m6CobQ9tlCl-3" target="XORYU4TF_m6CobQ9tlCl-5" edge="1">
          <mxGeometry relative="1" as="geometry">
            <Array as="points">
              <mxPoint x="330" y="200" />
              <mxPoint x="500" y="200" />
            </Array>
          </mxGeometry>
        </mxCell>
        <mxCell id="XORYU4TF_m6CobQ9tlCl-3" value="&lt;font style=&quot;font-size: 7px;&quot;&gt;Sistem Informasi Penggajian Karyawan&lt;/font&gt;" style="ellipse;whiteSpace=wrap;html=1;aspect=fixed;" parent="1" vertex="1">
          <mxGeometry x="270" y="105" width="70" height="70" as="geometry" />
        </mxCell>
        <mxCell id="XORYU4TF_m6CobQ9tlCl-4" value="" style="endArrow=classic;html=1;rounded=0;entryX=0;entryY=0;entryDx=0;entryDy=0;" parent="1" target="XORYU4TF_m6CobQ9tlCl-3" edge="1">
          <mxGeometry width="50" height="50" relative="1" as="geometry">
            <mxPoint x="100" y="120" as="sourcePoint" />
            <mxPoint x="150" y="70" as="targetPoint" />
            <Array as="points">
              <mxPoint x="100" y="100" />
              <mxPoint x="200" y="100" />
              <mxPoint x="280" y="100" />
            </Array>
          </mxGeometry>
        </mxCell>
        <mxCell id="Hff7kwKCVYfB539MArai-8" style="edgeStyle=orthogonalEdgeStyle;rounded=0;orthogonalLoop=1;jettySize=auto;html=1;exitX=0.25;exitY=0;exitDx=0;exitDy=0;entryX=1;entryY=0;entryDx=0;entryDy=0;fontSize=7;" parent="1" source="XORYU4TF_m6CobQ9tlCl-5" target="XORYU4TF_m6CobQ9tlCl-3" edge="1">
          <mxGeometry relative="1" as="geometry">
            <Array as="points">
              <mxPoint x="500" y="80" />
              <mxPoint x="330" y="80" />
            </Array>
          </mxGeometry>
        </mxCell>
        <mxCell id="XORYU4TF_m6CobQ9tlCl-5" value="Admin" style="rounded=0;whiteSpace=wrap;html=1;" parent="1" vertex="1">
          <mxGeometry x="480" y="120" width="80" height="40" as="geometry" />
        </mxCell>
        <mxCell id="XORYU4TF_m6CobQ9tlCl-6" value="Update Profile" style="text;html=1;align=center;verticalAlign=middle;resizable=0;points=[];autosize=1;strokeColor=none;fillColor=none;fontSize=7;" parent="1" vertex="1">
          <mxGeometry x="150" y="80" width="70" height="20" as="geometry" />
        </mxCell>
        <mxCell id="XORYU4TF_m6CobQ9tlCl-8" value="Data Pengambilan" style="text;html=1;align=center;verticalAlign=middle;resizable=0;points=[];autosize=1;strokeColor=none;fillColor=none;fontSize=7;" parent="1" vertex="1">
          <mxGeometry x="145" y="60" width="80" height="20" as="geometry" />
        </mxCell>
        <mxCell id="Hff7kwKCVYfB539MArai-5" value="Data Prrofile" style="text;html=1;align=center;verticalAlign=middle;resizable=0;points=[];autosize=1;strokeColor=none;fillColor=none;fontSize=7;" parent="1" vertex="1">
          <mxGeometry x="160" y="180" width="60" height="20" as="geometry" />
        </mxCell>
        <mxCell id="Hff7kwKCVYfB539MArai-6" value="Data Transaksi Gaji" style="text;html=1;align=center;verticalAlign=middle;resizable=0;points=[];autosize=1;strokeColor=none;fillColor=none;fontSize=7;" parent="1" vertex="1">
          <mxGeometry x="165" y="200" width="80" height="20" as="geometry" />
        </mxCell>
        <mxCell id="Hff7kwKCVYfB539MArai-9" value="Data Login, Data Transaksi Gaji, Data Pegawai , &lt;br&gt;Data Golongan, Data Gaji, Data Bidang" style="text;html=1;align=center;verticalAlign=middle;resizable=0;points=[];autosize=1;strokeColor=none;fillColor=none;fontSize=7;" parent="1" vertex="1">
          <mxGeometry x="330" y="50" width="170" height="30" as="geometry" />
        </mxCell>
        <mxCell id="Hff7kwKCVYfB539MArai-11" value="Data Transaksi Gaji, Data Pegawai , &lt;br&gt;Data Golongan, Data Gaji, Data Bidang" style="text;html=1;align=center;verticalAlign=middle;resizable=0;points=[];autosize=1;strokeColor=none;fillColor=none;fontSize=7;" parent="1" vertex="1">
          <mxGeometry x="339" y="200" width="150" height="30" as="geometry" />
        </mxCell>
        <mxCell id="WSknAyBgMAha3jZFlSOS-2" value="Data Login" style="text;html=1;align=center;verticalAlign=middle;resizable=0;points=[];autosize=1;strokeColor=none;fillColor=none;fontSize=7;" vertex="1" parent="1">
          <mxGeometry x="155" y="40" width="60" height="20" as="geometry" />
        </mxCell>
      </root>
    </mxGraphModel>
  </diagram>
</mxfile>
